<?xml version="1.0" standalone="no"?><!DOCTYPE svg PUBLIC "-//W3C//DTD SVG 1.1//EN" "http://www.w3.org/Graphics/SVG/1.1/DTD/svg11.dtd"><svg t="1550212534044" class="icon" style="" viewBox="0 0 1352 1024" version="1.1" xmlns="http://www.w3.org/2000/svg" p-id="5060" xmlns:xlink="http://www.w3.org/1999/xlink" width="264.0625" height="200"><defs><style type="text/css"></style></defs><path d="M1263.97984 192.01664l-240.00032 0c-61.664047 0-63.937281-57.50669-63.99872-63.99872l0-32.0096c0-40.262875-44.48167-96.00832-127.99744-96.00832l-319.01058 0c-93.919402 0-127.99744 57.404292-127.99744 96.00832l0 31.804804c-0.040959 2.621388-1.535969 64.183036-64.98174 64.183036l-240.00032 0c-44.133517 0-79.99328 35.900722-79.99328 79.99328l0 575.98848c0 44.092558 35.880242 79.99328 79.99328 79.99328l191.99616 0c8.826703 0 15.99456-7.167857 15.99456-15.99456s-7.167857-15.99456-15.99456-15.99456l-191.99616 0c-26.459631 0-48.00416-21.544529-48.00416-48.00416l0-399.98688 255.99488 0c-20.602468 49.273895-32.0096 103.319534-32.0096 160.00704 0 229.371413 186.630507 416.00192 416.00192 416.00192s416.00192-186.630507 416.00192-416.00192c0-56.667027-11.48905-110.712666-32.091518-160.00704l256.097278 0 0 399.98688c0 26.459631-21.544529 48.00416-48.00416 48.00416l-224.00576 0c-8.826703 0-15.99456 7.167857-15.99456 15.99456s7.167857 15.99456 15.99456 15.99456l224.00576 0c44.133517 0 79.99328-35.900722 79.99328-79.99328l0-575.98848c0-44.092558-35.880242-79.99328-79.99328-79.99328zM671.9968 992.01088c-211.738485 0-383.99232-172.253835-383.99232-383.99232s172.253835-383.99232 383.99232-383.99232 383.99232 172.253835 383.99232 383.99232-172.253835 383.99232-383.99232 383.99232zM1047.9816 416.0224c-2.375632 0-4.566949 0.573429-6.594428 1.49501-69.241495-133.731725-208.707506-225.50077-369.410852-225.50077s-300.148877 91.769045-369.410852 225.50077c-2.007-0.921582-4.218796-1.49501-6.594428-1.49501l-264.0024 0 0-143.992c0-26.459631 21.544529-48.00416 48.00416-48.00416l240.00032 0c75.774485 0 96.602228-62.647067 96.99134-96.00832l0-32.0096c0-25.722366 25.558529-63.99872 96.00832-63.99872l319.01058 0c67.00922 0 96.00832 42.372273 96.00832 63.99872l0 32.0096c0 33.217896 20.069999 96.00832 96.00832 96.00832l240.00032 0c26.459631 0 48.00416 21.544529 48.00416 48.00416l0 143.992-264.0024 0zM303.99904 160.027519c8.826703 0 15.99456-7.167857 15.99456-15.99456l0-32.0096c0-26.459631-21.544529-48.00416-48.00416-48.00416l-127.99744 0c-26.459631 0-48.00416 21.544529-48.00416 48.00416l0 32.0096c0 8.826703 7.167857 15.99456 15.99456 15.99456s15.99456-7.167857 15.99456-15.99456l0-32.0096c0-8.826703 7.208816-15.99456 15.99456-15.99456l127.99744 0c8.806224 0 15.99456 7.167857 15.99456 15.99456l0 32.0096c0 8.826703 7.167857 15.99456 15.99456 15.99456zM671.9968 320.01408c-158.819224 0-288.00448 129.205736-288.00448 288.00448s129.185256 288.00448 288.00448 288.00448 288.00448-129.205736 288.00448-288.00448-129.185256-288.00448-288.00448-288.00448zM671.9968 864.01344c-141.145337 0-255.99488-114.849543-255.99488-255.99488s114.849543-255.99488 255.99488-255.99488 255.99488 114.849543 255.99488 255.99488-114.849543 255.99488-255.99488 255.99488z" p-id="5061" fill="#ffffff"></path></svg>