<?xml version="1.0" standalone="no"?><!DOCTYPE svg PUBLIC "-//W3C//DTD SVG 1.1//EN" "http://www.w3.org/Graphics/SVG/1.1/DTD/svg11.dtd"><svg t="1550455226489" class="icon" style="" viewBox="0 0 1024 1024" version="1.1" xmlns="http://www.w3.org/2000/svg" p-id="14153" xmlns:xlink="http://www.w3.org/1999/xlink" width="200" height="200"><defs><style type="text/css"></style></defs><path d="M512 0q-139.008 0-256.992 68.512T68.512 255.008 0 512t68.512 256.992 186.496 186.496T512 1024t256.992-68.512 186.496-186.496T1024 512t-68.512-256.992-186.496-186.496T512 0z m204.992 667.008q11.008 10.016 11.008 24.992t-10.496 25.504-25.504 10.496-26.016-10.016l-154.016-155.008-154.016 155.008q-11.008 10.016-26.016 10.016t-25.504-10.496-10.496-25.504 11.008-24.992L460.96 512l-154.016-155.008q-11.008-10.016-11.008-24.992t10.496-25.504 25.504-10.496 26.016 10.016l154.016 155.008 154.016-155.008q11.008-10.016 26.016-10.016t25.504 10.496 10.496 24.992-11.008 25.504L562.976 512z" p-id="14154" fill="#f47983"></path></svg>