<?xml version="1.0" standalone="no"?><!DOCTYPE svg PUBLIC "-//W3C//DTD SVG 1.1//EN" "http://www.w3.org/Graphics/SVG/1.1/DTD/svg11.dtd"><svg t="1551163609719" class="icon" style="" viewBox="0 0 1024 1024" version="1.1" xmlns="http://www.w3.org/2000/svg" p-id="1479" xmlns:xlink="http://www.w3.org/1999/xlink" width="200" height="200"><defs><style type="text/css"></style></defs><path d="M650.098688 40.388608c-147.611648 0-267.685888 120.070144-267.685888 267.671552 0 101.98016 38.987776 190.808064 123.121664 235.982848-175.208448 54.011904-292.691968 217.434112-292.691968 410.130432a25.511936 25.511936 0 0 0 7.487488 18.075648c4.796416 4.796416 19.456 11.567104 26.23488 11.563008 6.77888 0.006144 21.44256-6.770688 26.23488-11.563008a25.530368 25.530368 0 0 0 7.481344-18.075648c0-208.400384 161.415168-373.878784 367.927296-373.956608a24.43264 24.43264 0 0 0 7.989248-0.503808c144.781312-3.254272 261.56032-126.111744 261.56032-271.652864-0.004096-147.595264-120.080384-267.671552-267.659264-267.671552z m0 467.89632c-119.42912 0-200.249344-80.816128-200.249344-200.218624 0-119.42912 80.820224-198.203392 200.249344-198.203392 119.40864 0 200.226816 78.774272 200.226816 198.203392 0.002048 119.3984-80.818176 200.218624-200.226816 200.218624z m0 0" p-id="1480" fill="#ffffff"></path><path d="M375.642112 539.301888l-0.006144-0.104448 0.006144-0.1024c0.006144-6.77888-6.764544-21.44256-11.563008-26.238976a25.55904 25.55904 0 0 0-18.081792-7.4752c-92.715008 0-143.675392-80.592896-143.675392-179.648512 0-99.053568 59.119616-163.321856 151.834624-163.321856 6.77888 0 13.285376-2.691072 18.075648-7.481344 4.796416-4.79232 7.487488-19.456 7.487488-26.23488 0.006144-6.77888-2.684928-21.444608-7.483392-26.238976a25.5488 25.5488 0 0 0-18.081792-7.483392c-120.901632 0-219.262976 103.524352-219.262976 230.760448 0 84.66432 29.274112 158.810112 94.03392 198.967296C91.05408 573.683712 5.756928 711.356416 5.756928 873.115648a25.552896 25.552896 0 0 0 7.481344 18.075648c4.79232 4.79232 19.456 11.563008 26.23488 11.563008 6.77888 0.006144 21.438464-6.764544 26.23488-11.563008a25.540608 25.540608 0 0 0 7.487488-18.075648c0-174.483456 108.879872-300.101632 272.809984-300.101632a25.51808 25.51808 0 0 0 18.075648-7.4752c4.796416-4.79232 11.565056-19.458048 11.56096-26.236928zM990.695424 789.075968c-20.606976-20.604928-47.55456-31.700992-76.087296-31.700992h-26.947584c-14.266368 0-26.157056 11.886592-26.157056 26.15296s11.88864 26.157056 26.157056 26.157056h26.947584c30.119936 0 55.48032 24.567808 55.48032 55.478272 0 14.266368-5.548032 28.532736-15.849472 38.836224-10.303488 10.30144-23.775232 15.849472-38.836224 15.849472H808.40704c-14.266368 0-28.532736-5.548032-38.834176-15.849472-10.307584-10.303488-15.853568-24.569856-15.853568-39.6288 0-4.753408 0.792576-10.30144 1.5872-15.056896 2.377728-7.135232 1.583104-14.266368-2.377728-19.8144-3.172352-5.548032-8.718336-10.305536-15.853568-12.683264-13.473792-3.960832-27.74016 3.96288-32.493568 18.231296-2.377728 9.508864-3.964928 19.8144-3.964928 29.323264 0 28.532736 11.096064 55.48032 30.910464 76.087296 20.609024 20.604928 47.55456 31.700992 76.089344 31.700992h106.995712c59.4432 0 107.792384-48.345088 107.792384-106.995712-0.004096-28.532736-11.892736-56.272896-31.709184-76.087296z" p-id="1481" fill="#ffffff"></path><path d="M649.893888 869.128192l-21.4016-0.792576c-14.266368 0-28.532736-5.548032-38.834176-15.853568-10.303488-10.303488-15.849472-24.569856-15.849472-39.624704 0-14.266368 5.548032-28.532736 15.849472-39.6288 10.30144-10.303488 24.567808-15.849472 39.6288-15.849472h106.993664c30.119936 0 55.484416 24.569856 55.484416 55.48032 0 6.33856-0.792576 11.886592-2.381824 15.849472-2.377728 6.340608-1.583104 13.471744 1.5872 20.606976 3.170304 6.33856 8.718336 11.096064 15.056896 12.679168 6.342656 2.377728 13.477888 1.5872 20.609024-1.583104 6.342656-3.170304 11.096064-8.718336 12.679168-15.853568 3.170304-10.30144 4.757504-21.397504 4.757504-31.698944 0-28.532736-11.096064-55.48032-31.705088-76.089344-20.604928-20.606976-47.55456-31.70304-76.087296-31.70304h-106.993664c-28.534784 0-55.48032 11.096064-76.089344 30.910464-20.604928 20.609024-31.700992 47.55456-31.700992 76.089344 0 59.4432 48.345088 107.788288 106.995712 107.788288h20.609024c14.266368 0 26.15296-11.886592 26.15296-26.15296-0.002048-11.894784-11.88864-23.785472-25.360384-24.573952z m0 0" p-id="1482" fill="#ffffff"></path></svg>