<?xml version="1.0" standalone="no"?><!DOCTYPE svg PUBLIC "-//W3C//DTD SVG 1.1//EN" "http://www.w3.org/Graphics/SVG/1.1/DTD/svg11.dtd"><svg t="1550720593729" class="icon" style="" viewBox="0 0 1024 1024" version="1.1" xmlns="http://www.w3.org/2000/svg" p-id="3564" xmlns:xlink="http://www.w3.org/1999/xlink" width="200" height="200"><defs><style type="text/css"></style></defs><path d="M512 0C230.4 0 0 230.4 0 512s230.4 512 512 512 512-230.4 512-512S793.6 0 512 0zM704 704c19.2 0 32 12.8 32 32s-12.8 32-32 32l-160 0 0 64c0 19.2-12.8 32-32 32s-32-12.8-32-32l0-64-160 0c-19.2 0-32-12.8-32-32s12.8-32 32-32l160 0 0-67.2c-108.8-16-192-108.8-192-220.8 0-124.8 99.2-224 224-224s224 99.2 224 224c0 112-83.2 204.8-192 220.8L544 704 704 704z" p-id="3565" fill="#f47983"></path><path d="M672 416c0-89.6-70.4-160-160-160s-160 70.4-160 160 70.4 160 160 160S672 505.6 672 416z" p-id="3566" fill="#f47983"></path></svg>