<?xml version="1.0" standalone="no"?><!DOCTYPE svg PUBLIC "-//W3C//DTD SVG 1.1//EN" "http://www.w3.org/Graphics/SVG/1.1/DTD/svg11.dtd"><svg t="1550202385019" class="icon" style="" viewBox="0 0 1024 1024" version="1.1" xmlns="http://www.w3.org/2000/svg" p-id="2539" xmlns:xlink="http://www.w3.org/1999/xlink" width="200" height="200"><defs><style type="text/css"></style></defs><path d="M783.7 240.3c-149.8-149.8-393.5-149.8-543.3 0-149.8 149.8-149.8 393.5 0 543.3 149.8 149.8 393.5 149.8 543.3 0 149.7-149.7 149.7-393.5 0-543.3z m-35.9 507.5c-130 130-341.6 130-471.7 0-130-130-130-341.7 0-471.7s341.6-130 471.7 0c130.1 130.1 130.1 341.7 0 471.7z" p-id="2540" fill="#f4ea2a"></path><path d="M616.2 497.6c27.8-27.8 43.2-64.8 43.2-104.2S644 317 616.2 289.2C588.4 261.4 551.4 246 512 246s-76.4 15.3-104.2 43.2C380 317 364.7 354 364.7 393.4s15.3 76.4 43.2 104.2c22.3 22.3 50 35.9 78.9 40.9v75.3H393c-14 0-25.3 11.3-25.3 25.3s11.3 25.3 25.3 25.3h93.7v88.2c0 14 11.3 25.3 25.3 25.3s25.3-11.3 25.3-25.3v-88.2H631c14 0 25.3-11.3 25.3-25.3S645 613.7 631 613.7h-93.7v-75.3c28.9-5 56.6-18.6 78.9-40.8z m-172.6-35.8c-18.3-18.3-28.3-42.5-28.3-68.4 0-25.8 10.1-50.1 28.3-68.4 18.3-18.3 42.5-28.3 68.4-28.3 25.8 0 50.1 10.1 68.4 28.3 18.3 18.3 28.3 42.5 28.3 68.4 0 25.8-10.1 50.1-28.3 68.4-37.7 37.7-99.1 37.7-136.8 0z" p-id="2541" fill="#f4ea2a"></path></svg>