<?xml version="1.0" standalone="no"?><!DOCTYPE svg PUBLIC "-//W3C//DTD SVG 1.1//EN" "http://www.w3.org/Graphics/SVG/1.1/DTD/svg11.dtd"><svg t="1550454561034" class="icon" style="" viewBox="0 0 1024 1024" version="1.1" xmlns="http://www.w3.org/2000/svg" p-id="10078" xmlns:xlink="http://www.w3.org/1999/xlink" width="200" height="200"><defs><style type="text/css"></style></defs><path d="M916.592521 994.850122L870.393848 948.651448v-597.323079l-8.481988-8.481988L785.061979 265.9965V0H102.407031v887.451432h85.331869v85.331869h658.523095l46.198674 46.198673a17.015175 17.015175 0 0 0 24.131852 0 17.049307 17.049307 0 0 0 0-24.131852zM812.129248 341.327474H614.398242V143.596468l170.663737 170.663737L812.129248 341.327474zM136.539779 853.318685V34.132747h614.389453v197.731006l-138.049897-138.049897L604.397347 85.331868H187.7389v767.986817H136.539779z m85.331868 85.331868V119.464616h358.393848v255.995605h255.995605v539.05848l-128.236732-128.236732a200.871218 200.871218 0 0 0 47.700515-130.028701c0-111.306889-90.554179-201.861068-201.861068-201.861068s-201.861068 90.554179-201.861068 201.861068 90.554179 201.861068 201.861068 201.861068a200.871218 200.871218 0 0 0 130.028701-47.700515L812.129248 938.650553H221.871647z m331.992168-114.668965c-92.482679 0-167.728321-75.245642-167.728321-167.72832s75.245642-167.728321 167.728321-167.728321 167.728321 75.245642 167.72832 167.728321-75.245642 167.728321-167.72832 167.72832z" fill="#ffffff" p-id="10079"></path><path d="M454.400989 614.389453h102.398242a17.066374 17.066374 0 1 0 0-34.132747h-102.398242a17.066374 17.066374 0 1 0 0 34.132747zM659.197473 682.654948h-204.796484a17.066374 17.066374 0 1 0 0 34.132747h204.796484a17.066374 17.066374 0 1 0 0-34.132747z" fill="#ffffff" p-id="10080"></path></svg>