<?xml version="1.0" standalone="no"?><!DOCTYPE svg PUBLIC "-//W3C//DTD SVG 1.1//EN" "http://www.w3.org/Graphics/SVG/1.1/DTD/svg11.dtd"><svg t="1550716889035" class="icon" style="" viewBox="0 0 1024 1024" version="1.1" xmlns="http://www.w3.org/2000/svg" p-id="2261" xmlns:xlink="http://www.w3.org/1999/xlink" width="200" height="200"><defs><style type="text/css"></style></defs><path d="M512.390312 0.343915C794.917837 0.343915 1023.963193 229.390529 1023.963193 511.919696 1023.963193 794.448862 794.917837 1023.49663 512.390312 1023.49663 229.862787 1023.49663 0.817429 794.450011 0.817429 511.919695 0.817429 229.389379 229.861616 0.343915 512.390312 0.343915L512.390312 0.343915 512.390312 0.343915ZM401.140747 426.883853C425.589771 424.440751 460.309988 434.214311 479.374343 442.524771 490.625418 447.427079 501.37952 452.796384 510.670829 458.66374 527.306573 469.432256 536.597882 476.762713 549.312922 491.438582 576.205796 522.237318 594.289095 566.746873 597.712822 609.280324 599.673759 634.709754 590.865362 666.986542 582.072201 687.529768 563.972491 732.023222 534.636944 763.818058 490.128445 785.824387 468.620242 796.096 443.191335 803.908409 415.80149 805.869562 375.213695 809.293813 322.891917 789.248643 290.615548 764.301158 248.564962 731.541271 222.653146 678.721257 217.751385 622.976188 214.825801 588.256296 231.446308 542.28364 250.027754 513.444908 252.968575 508.542599 256.392306 504.138344 259.816037 499.750191 262.741621 495.345935 267.146407 489.961677 270.570138 486.537423 287.688791 469.433405 302.846506 458.181791 325.832738 446.930175 349.301878 435.677412 372.286938 429.326957 401.140747 426.883853L401.140747 426.883853 401.140747 426.883853ZM617.275324 346.191305C615.329621 349.61556 607.984014 356.462918 604.560282 359.404073 599.673759 364.290278 569.840071 395.090164 566.914484 396.568218 562.992607 394.607064 557.623176 390.202808 553.219561 387.277756 522.902959 367.715682 490.62659 355.482916 454.443582 350.098659L434.384107 347.172457C430.960377 348.152459 406.511353 347.172457 400.643774 347.172457 389.889674 347.172457 379.135572 347.655557 368.367406 349.133611 348.804904 351.576713 330.721605 355.980969 313.601779 361.848326 278.398654 374.563042 251.491718 393.145114 229.485369 413.190287 175.217889 462.586047 145.867105 512.948007 139.019643 592.659405 137.073942 638.13401 139.019643 672.853902 154.177359 712.959198 163.965641 740.334831 184.508025 775.552774 205.533319 796.577951 232.42619 822.490482 243.179119 836.185196 280.841329 856.230372 295.999045 864.555782 311.157932 870.423142 328.759494 875.792447 338.050803 878.733602 347.34094 880.694756 356.632248 882.157858 362.996801 883.13786 383.042211 884.600957 386.465942 885.582108L431.94026 885.582108C435.862137 884.119012 447.596121 883.620955 452.965553 883.139009 459.330107 882.159007 465.680593 881.177856 472.045145 879.714753 483.779129 877.271649 496.494169 873.349342 507.24827 868.946239 533.658232 858.689582 570.821126 837.167502 590.383627 816.141175 594.290267 812.220018 598.21097 808.312667 602.117609 804.40646 613.368684 793.15485 624.122783 781.420134 633.414093 767.725414 669.114192 713.442298 682.312141 657.697234 676.444564 585.330096 674.00072 557.939513 667.651402 534.471236 658.360092 511.968007 654.438218 501.214445 649.068783 490.942833 643.684113 481.651222 640.743293 476.763866 637.816536 471.877661 634.392804 467.473406 631.948959 463.552249 627.062437 457.201793 625.584407 453.778688 633.909897 444.488227 644.165854 435.679716 653.457163 426.388103L709.217906 370.641886C714.104434 365.754531 718.509215 361.848327 723.395738 356.947169 726.321323 353.522914 733.66693 345.212455 737.090662 343.749354 737.090662 355.98097 736.11078 440.580873 738.056482 445.950177 739.534512 450.354432 747.363026 457.201791 749.805705 460.127993 756.653164 466.493403 759.578749 465.030302 770.830996 465.030302 798.205605 465.030302 795.762927 467.473403 810.437734 452.798685 816.787052 446.44938 815.324257 443.508225 815.324257 432.25546L816.304139 257.190599 816.304139 254.747496 816.304139 253.284396 816.304139 252.304394 816.304139 227.373016C810.91947 218.082555 813.363319 221.490706 804.07201 212.200244 797.239785 205.367839 793.816058 206.830941 782.563812 206.830941L648.0889 206.830938C643.202378 206.830938 625.585579 207.314038 622.659994 206.332885L579.629522 206.332885C575.225907 208.775987 574.72776 208.294039 570.821126 211.717143 557.624347 224.914957 557.624347 223.451857 557.624347 240.087728 557.624347 262.576003 554.200617 265.502205 572.285087 281.158076 579.132553 287.025433 585.497099 285.562332 595.768297 285.562332L623.641048 285.562332C641.72552 285.562332 660.306967 285.562332 678.406673 286.045431 676.943883 288.986586 652.977766 311.972915 648.090072 316.362217L625.103844 339.348545C623.641048 340.811646 622.659994 341.791647 621.197198 343.269702 620.217316 343.752802 619.719174 344.732802 619.236261 345.215902 617.772299 346.191305 618.738119 345.708206 617.275324 346.191305L617.275324 346.191305 617.275324 346.191305Z" p-id="2262"></path></svg>